<svg width="118" height="100" viewBox="0 0 118 100" fill="none" xmlns="http://www.w3.org/2000/svg">
<path d="M87.0093 2.24715L86.9099 2.08398H30.5914L2.28638 50.0006L30.492 97.7542L30.5914 97.9173H86.9099L115.215 50.0006L87.0093 2.24715ZM39.0213 23.2481L25.442 46.2478H12.5454L32.5464 12.3907L39.0213 23.2481ZM44.9924 79.8602H72.469L78.8975 90.8603H38.564L44.9924 79.8602ZM72.5419 19.6924H44.9659L38.67 9.14095H78.8312L72.5419 19.6924ZM44.9991 72.8032L31.3999 49.7763L44.9991 26.7494H72.4956L86.0947 49.7763L72.4956 72.8032H44.9991ZM92.0592 46.2478L78.48 23.2549L84.9548 12.3975L104.949 46.2478H92.0592ZM39.0412 76.3317L32.5001 87.529L12.2869 53.3116H25.442L39.0412 76.3317ZM105.221 53.3048L84.9879 87.5562L78.4468 76.3589L92.0659 53.3048H105.221Z" fill="#AE0822"/>
</svg>
