<svg width="32" height="32" viewBox="0 0 32 32" fill="none" xmlns="http://www.w3.org/2000/svg">
<rect width="32" height="32" fill="#5DFFCA"/>
<path d="M28.0385 17.0605C28.5084 17.0605 28.8805 17.4627 28.8113 17.9274C27.9734 23.5549 23.5123 27.9995 17.8767 28.8124C17.413 28.8793 17.0131 28.5077 17.0131 28.0393C17.0131 27.6221 17.3332 27.2773 17.7455 27.214C22.6043 26.4692 26.4472 22.6407 27.2137 17.789C27.2785 17.3784 27.6228 17.0605 28.0385 17.0605Z" fill="black"/>
<path d="M3.98794 17.0605C4.40367 17.0605 4.74788 17.3784 4.81275 17.789C5.57707 22.6273 9.40086 26.4481 14.2407 27.2078C14.6517 27.2723 14.97 27.6166 14.97 28.0326C14.97 28.5022 14.5683 28.8742 14.1038 28.8055C8.48983 27.9753 4.05078 23.5397 3.21515 17.9274C3.14595 17.4627 3.51805 17.0605 3.98794 17.0605Z" fill="black"/>
<path d="M14.97 3.97833C14.97 4.39435 14.6517 4.73869 14.2407 4.8032C9.28165 5.58159 5.38927 9.57379 4.76182 14.5813C4.70893 15.0034 4.36039 15.3363 3.93501 15.3363C3.47545 15.3363 3.10726 14.9501 3.16038 14.4937C3.83592 8.68847 8.35374 4.05586 14.1038 3.20549C14.5683 3.1368 14.97 3.50877 14.97 3.97833Z" fill="black"/>
<path d="M17.0131 3.97179C17.0131 3.5034 17.413 3.13186 17.8766 3.19872C23.6485 4.03118 28.1886 8.67308 28.8659 14.4938C28.919 14.9502 28.5509 15.3363 28.0913 15.3363C27.666 15.3363 27.3175 15.0034 27.2646 14.5814C26.6355 9.5603 22.7236 5.55999 17.7454 4.79691C17.3331 4.73372 17.0131 4.38888 17.0131 3.97179Z" fill="black"/>
<path d="M18.6875 12.1008C19.1945 12.1008 19.6055 12.5336 19.6055 13.0676V13.6418C19.6055 14.1758 20.0165 14.6086 20.5236 14.6086H21.0972C21.6042 14.6086 22.0152 15.0415 22.0152 15.5754V16.1375C22.0152 16.6714 22.4263 17.1043 22.9333 17.1043H23.4842C23.9912 17.1043 24.4022 17.5371 24.4022 18.0711V18.6753C24.4022 19.2093 23.9912 19.6421 23.4842 19.6421H22.9104C22.4033 19.6421 21.9923 19.2093 21.9923 18.6753V18.1133C21.9923 17.5793 21.5813 17.1465 21.0742 17.1465H20.5234C20.0163 17.1465 19.6053 16.7136 19.6053 16.1797V15.6054C19.6053 15.0715 19.1943 14.6386 18.6872 14.6386H18.1136C17.6066 14.6386 17.1956 14.2058 17.1956 13.6718V13.098C17.1956 12.5641 16.7846 12.1312 16.2775 12.1312H15.7037C15.1967 12.1312 14.7857 12.5641 14.7857 13.098V13.6718C14.7857 14.2058 14.3746 14.6386 13.8676 14.6386H13.2938C12.7868 14.6386 12.3757 15.0715 12.3757 15.6054V16.1797C12.3757 16.7136 11.9647 17.1465 11.4577 17.1465H10.924C10.417 17.1465 10.0059 17.5793 10.0059 18.1133V18.6753C10.0059 19.2093 9.59489 19.6421 9.08786 19.6421H8.51406C8.00702 19.6421 7.59599 19.2093 7.59599 18.6753V18.0711C7.59599 17.5371 8.00702 17.1043 8.51406 17.1043H9.04772C9.55475 17.1043 9.96579 16.6714 9.96579 16.1375V15.5754C9.96579 15.0415 10.3768 14.6086 10.8839 14.6086H11.4577C11.9647 14.6086 12.3757 14.1758 12.3757 13.6418V13.0676C12.3757 12.5336 12.7868 12.1008 13.2938 12.1008H13.8676C14.3746 12.1008 14.7857 11.6679 14.7857 11.134V10.5602C14.7857 10.0262 15.1967 9.59335 15.7037 9.59335H16.2775C16.7846 9.59335 17.1956 10.0262 17.1956 10.5602V11.134C17.1956 11.6679 17.6066 12.1008 18.1136 12.1008H18.6875Z" fill="black"/>
<path d="M18.6874 16.9946C19.1945 16.9946 19.6055 17.4275 19.6055 17.9614V18.5233C19.6055 19.0572 20.0165 19.4901 20.5236 19.4901H21.0953C21.6023 19.4901 22.0133 19.9229 22.0133 20.4569V21.0611C22.0133 21.5951 21.6023 22.0279 21.0953 22.0279H20.5215C20.0144 22.0279 19.6034 21.5951 19.6034 21.0611V20.4993C19.6034 19.9653 19.1924 19.5325 18.6853 19.5325H18.1136C17.6066 19.5325 17.1956 19.0996 17.1956 18.5657V17.9917C17.1956 17.4577 16.7845 17.0249 16.2775 17.0249H15.7037C15.1967 17.0249 14.7856 17.4577 14.7856 17.9917V18.5657C14.7856 19.0996 14.3746 19.5325 13.8676 19.5325H13.3339C12.8269 19.5325 12.4158 19.9653 12.4158 20.4993V21.0611C12.4158 21.5951 12.0048 22.0279 11.4978 22.0279H10.924C10.4169 22.0279 10.0059 21.5951 10.0059 21.0611V20.4569C10.0059 19.9229 10.4169 19.4901 10.924 19.4901H11.4576C11.9647 19.4901 12.3757 19.0572 12.3757 18.5233V17.9614C12.3757 17.4275 12.7867 16.9946 13.2938 16.9946H13.8676C14.3746 16.9946 14.7856 16.5618 14.7856 16.0278V15.4538C14.7856 14.9198 15.1967 14.487 15.7037 14.487H16.2775C16.7845 14.487 17.1956 14.9198 17.1956 15.4538V16.0278C17.1956 16.5618 17.6066 16.9946 18.1136 16.9946H18.6874Z" fill="black"/>
</svg>
