<?xml version="1.0" encoding="UTF-8"?>
<svg version="1.1" xmlns="http://www.w3.org/2000/svg" width="64" height="64">
<path d="M0 0 C1.19463867 -0.00630432 2.38927734 -0.01260864 3.62011719 -0.019104 C4.91594727 -0.01505554 6.21177734 -0.01100708 7.546875 -0.00683594 C8.88444082 -0.00818272 10.22200617 -0.01012336 11.55957031 -0.01263428 C14.36397966 -0.01558494 17.16826169 -0.01128987 19.97265625 -0.00195312 C23.57092422 0.00944153 27.16889386 0.00288172 30.76715088 -0.00909805 C33.52948258 -0.0163183 36.29174333 -0.014028 39.05407715 -0.00884247 C41.02726433 -0.00685568 43.00045426 -0.01293935 44.97363281 -0.019104 C46.16827148 -0.01279968 47.36291016 -0.00649536 48.59375 0 C50.17687988 0.00238678 50.17687988 0.00238678 51.79199219 0.00482178 C54.296875 0.25878906 54.296875 0.25878906 56.296875 2.25878906 C56.52392578 4.32177734 56.52392578 4.32177734 56.4921875 6.82910156 C56.48574219 7.725 56.47929688 8.62089844 56.47265625 9.54394531 C56.44751953 10.94966797 56.44751953 10.94966797 56.421875 12.38378906 C56.41285156 13.32867187 56.40382813 14.27355469 56.39453125 15.24707031 C56.37092022 17.58456198 56.33799016 19.9215503 56.296875 22.25878906 C54.36059731 22.36686038 52.42259744 22.44441157 50.484375 22.50878906 C48.86595703 22.57839844 48.86595703 22.57839844 47.21484375 22.64941406 C44.296875 22.25878906 44.296875 22.25878906 42.41015625 20.36816406 C41.296875 18.25878906 41.296875 18.25878906 41.296875 16.25878906 C39.97429028 15.57104501 38.63700997 14.91167533 37.296875 14.25878906 C36.3275 13.72253906 35.358125 13.18628906 34.359375 12.63378906 C27.96807977 9.91438267 19.77768395 10.45704421 13.109375 12.00878906 C10.2237975 12.98382387 10.2237975 12.98382387 9.046875 15.19628906 C8.799375 15.87691406 8.551875 16.55753906 8.296875 17.25878906 C7.5853125 17.93941406 7.5853125 17.93941406 6.859375 18.63378906 C3.49603396 22.13166374 2.38940965 27.0379575 2.19140625 31.79003906 C2.65786328 38.81943797 4.69347017 44.43223525 9.484375 49.63378906 C15.67913134 53.21298162 23.23172714 54.1241728 30.296875 53.25878906 C32.83505531 52.48281678 34.90831695 51.47648532 37.296875 50.25878906 C38.06 49.99066406 38.823125 49.72253906 39.609375 49.44628906 C42.18180584 47.63605995 42.42363962 45.19036498 43.296875 42.25878906 C45.94145879 40.93649717 47.97448801 41.16201712 50.921875 41.19628906 C52.42621094 41.20982422 52.42621094 41.20982422 53.9609375 41.22363281 C54.73179688 41.23523437 55.50265625 41.24683594 56.296875 41.25878906 C56.35476506 44.71705248 56.39043321 48.175192 56.421875 51.63378906 C56.43863281 52.61863281 56.45539063 53.60347656 56.47265625 54.61816406 C56.47910156 55.55917969 56.48554687 56.50019531 56.4921875 57.46972656 C56.50266113 58.33903809 56.51313477 59.20834961 56.52392578 60.10400391 C56.296875 62.25878906 56.296875 62.25878906 54.296875 64.25878906 C51.79199219 64.51275635 51.79199219 64.51275635 48.59375 64.51757812 C47.39911133 64.52388245 46.20447266 64.53018677 44.97363281 64.53668213 C43.67780273 64.53263367 42.38197266 64.52858521 41.046875 64.52441406 C39.70930918 64.52576085 38.37174383 64.52770149 37.03417969 64.5302124 C34.22977034 64.53316306 31.42548831 64.528868 28.62109375 64.51953125 C25.02282578 64.5081366 21.42485614 64.5146964 17.82659912 64.52667618 C15.06426742 64.53389642 12.30200667 64.53160613 9.53967285 64.52642059 C7.56648567 64.52443381 5.59329574 64.53051748 3.62011719 64.53668213 C2.42547852 64.53037781 1.23083984 64.52407349 0 64.51757812 C-1.05541992 64.51598694 -2.11083984 64.51439575 -3.19824219 64.51275635 C-5.703125 64.25878906 -5.703125 64.25878906 -7.703125 62.25878906 C-7.95709229 59.75390625 -7.95709229 59.75390625 -7.96191406 56.55566406 C-7.96821838 55.36102539 -7.97452271 54.16638672 -7.98101807 52.93554688 C-7.9769696 51.6397168 -7.97292114 50.34388672 -7.96875 49.00878906 C-7.97009678 47.67122324 -7.97203743 46.33365789 -7.97454834 44.99609375 C-7.977499 42.1916844 -7.97320394 39.38740238 -7.96386719 36.58300781 C-7.95247254 32.98473984 -7.95903234 29.3867702 -7.97101212 25.78851318 C-7.97823236 23.02618148 -7.97594206 20.26392073 -7.97075653 17.50158691 C-7.96876975 15.52839973 -7.97485342 13.55520981 -7.98101807 11.58203125 C-7.97471375 10.38739258 -7.96840942 9.19275391 -7.96191406 7.96191406 C-7.96032288 6.90649414 -7.95873169 5.85107422 -7.95709229 4.76367188 C-7.4364896 -0.37103956 -4.3907541 0.00661965 0 0 Z " fill="#000000" transform="translate(7.703125,-0.2587890625)"/>
<path d="M0 0 C1.625 1.1875 1.625 1.1875 2.625 4.1875 C1.635 5.1775 0.645 6.1675 -0.375 7.1875 C-1.035 6.5275 -1.695 5.8675 -2.375 5.1875 C-7.17334561 4.63935969 -7.17334561 4.63935969 -11.3125 6.6875 C-11.663125 7.1825 -12.01375 7.6775 -12.375 8.1875 C-9.735 8.1875 -7.095 8.1875 -4.375 8.1875 C-4.375 10.1675 -4.375 12.1475 -4.375 14.1875 C-6.685 14.5175 -8.995 14.8475 -11.375 15.1875 C-9.49726736 17.49496414 -9.49726736 17.49496414 -6.4375 17.4375 C-3.20217213 17.42267754 -3.20217213 17.42267754 -0.375 15.1875 C0.615 15.8475 1.605 16.5075 2.625 17.1875 C2.28911682 19.70662388 2.05145046 20.85946119 0 22.4375 C-4.26215073 23.78344233 -8.16726428 23.59007857 -12.375 22.1875 C-12.375 21.5275 -12.375 20.8675 -12.375 20.1875 C-12.99375 20.105 -13.6125 20.0225 -14.25 19.9375 C-16.375 19.1875 -16.375 19.1875 -17.4375 17.1875 C-17.746875 16.5275 -18.05625 15.8675 -18.375 15.1875 C-19.365 14.8575 -20.355 14.5275 -21.375 14.1875 C-21.5625 11.3125 -21.5625 11.3125 -21.375 8.1875 C-20.385 7.5275 -19.395 6.8675 -18.375 6.1875 C-17.570625 5.3625 -16.76625 4.5375 -15.9375 3.6875 C-11.17532665 -0.95852278 -6.55952278 -2.24404727 0 0 Z " fill="#E40024" transform="translate(38.375,20.8125)"/>
<path d="M0 0 C1.51400391 0.01740234 1.51400391 0.01740234 3.05859375 0.03515625 C4.07050781 0.04417969 5.08242188 0.05320312 6.125 0.0625 C7.29869141 0.07990234 7.29869141 0.07990234 8.49609375 0.09765625 C8.49609375 3.06765625 8.49609375 6.03765625 8.49609375 9.09765625 C4.53609375 9.09765625 0.57609375 9.09765625 -3.50390625 9.09765625 C-3.6015625 2.9453125 -3.6015625 2.9453125 -3.50390625 1.09765625 C-2.50390625 0.09765625 -2.50390625 0.09765625 0 0 Z " fill="#E80023" transform="translate(55.50390625,26.90234375)"/>
</svg>
