<svg xmlns="http://www.w3.org/2000/svg" width="87" height="86" fill="none" viewBox="0 0 87 86"><path fill="#000" d="M0.707031 0.170898V85.8297H86.2829V0.170898H0.707031ZM77.743 85.5826L0.954041 77.2532L9.28229 0.382629L86.0359 8.74738L77.743 85.5826Z"/><path fill="#000" d="M69.2384 84.4173L84.8714 17.2173L17.7517 1.58203L2.11865 68.782L69.2384 84.4173ZM26.0093 3.77026L82.6835 25.4761L60.9808 82.2291L4.30658 60.5232L26.0093 3.77026Z"/><path fill="#000" d="M53.1467 78.8416L79.3312 33.3474L33.8789 7.15918L7.65918 52.6533L53.1467 78.8416ZM41.0779 11.7474L74.7083 40.5827L45.9125 74.2533L12.282 45.418L41.0779 11.7474Z"/><path fill="#000" d="M39.7369 68.3593L68.8151 46.7592L47.2534 17.6416L18.1753 39.2416L39.7369 68.3593ZM51.8763 24.8416L61.6514 51.3828L35.114 61.1592L25.339 34.618L51.8763 24.8416Z"/><path fill="#000" d="M53.4288 53.6063L54.0993 33.0651L33.5611 32.3945L32.8906 52.9357L53.4288 53.6063ZM41.9599 33.7357L52.7231 41.4298L45.0654 52.2651L34.2669 44.5357L41.9599 33.7357Z"/><path fill="#000" d="M40.4782 38.9941L39.4897 46.0176L46.5123 47.0059L47.5007 39.9824L40.4782 38.9941Z"/></svg>