<svg xmlns="http://www.w3.org/2000/svg" fill="none" viewBox="0 0 32 33"><g clip-path="url(#clip0_49734_47570)"><mask id="mask0_49734_47570" style="mask-type:luminance" width="32" height="33" x="0" y="0" maskUnits="userSpaceOnUse"><path fill="#fff" d="M32 16.8799C32 8.04333 24.8366 0.879883 16 0.879883C7.16344 0.879883 0 8.04333 0 16.8799C0 25.7164 7.16344 32.8799 16 32.8799C24.8366 32.8799 32 25.7164 32 16.8799Z"/></mask><g mask="url(#mask0_49734_47570)"><path fill="url(#paint0_linear_49734_47570)" d="M32 16.8799C32 8.04333 24.8366 0.879883 16 0.879883C7.16344 0.879883 0 8.04333 0 16.8799C0 25.7164 7.16344 32.8799 16 32.8799C24.8366 32.8799 32 25.7164 32 16.8799Z"/><path fill="url(#paint1_linear_49734_47570)" d="M25.7816 16.8096C25.7995 18.4168 25.4634 19.9525 24.8031 21.4198C23.8602 23.5091 21.5996 25.2176 19.5354 23.399C17.8518 21.9169 17.5395 18.9079 15.0172 18.4674C11.6799 18.0626 11.5996 21.9347 9.41937 22.3722C6.98927 22.8663 6.18321 18.7769 6.2189 16.9197C6.25459 15.0625 6.74837 12.4523 8.86018 12.4523C11.2903 12.4523 11.4539 16.134 14.5384 15.9346C17.5931 15.7262 17.6466 11.8958 19.6424 10.2558C21.3646 8.83917 23.3902 9.87785 24.4045 11.5833C25.3444 13.1607 25.7579 15.0119 25.7787 16.8096H25.7816Z"/><path stroke="url(#paint2_linear_49734_47570)" d="M16 32.5012C24.6274 32.5012 31.6213 25.5073 31.6213 16.8798C31.6213 8.25244 24.6274 1.25854 16 1.25854C7.37256 1.25854 0.378662 8.25244 0.378662 16.8798C0.378662 25.5073 7.37256 32.5012 16 32.5012Z"/><path stroke="url(#paint3_linear_49734_47570)" stroke-opacity=".8" stroke-width=".75" d="M15.9999 30.5456C23.5473 30.5456 29.6656 24.4273 29.6656 16.8799C29.6656 9.33258 23.5473 3.21423 15.9999 3.21423C8.45257 3.21423 2.33423 9.33258 2.33423 16.8799C2.33423 24.4273 8.45257 30.5456 15.9999 30.5456Z"/></g></g><defs><linearGradient id="paint0_linear_49734_47570" x1="32" x2="0" y1=".88" y2="32.88" gradientUnits="userSpaceOnUse"><stop stop-color="#9F9F9F"/><stop offset=".423" stop-color="#131313"/></linearGradient><linearGradient id="paint1_linear_49734_47570" x1="16" x2="16" y1="9.591" y2="24.168" gradientUnits="userSpaceOnUse"><stop stop-color="#6EE4FF"/><stop offset="1" stop-color="#246F8F"/></linearGradient><linearGradient id="paint2_linear_49734_47570" x1="16" x2="16" y1="1.827" y2="31.933" gradientUnits="userSpaceOnUse"><stop stop-color="#35ABD9"/><stop offset="1" stop-color="#2D7E99"/></linearGradient><linearGradient id="paint3_linear_49734_47570" x1="16" x2="16" y1="3.498" y2="30.262" gradientUnits="userSpaceOnUse"><stop stop-color="#C9C9C9"/><stop offset="1" stop-color="#646464"/></linearGradient><clipPath id="clip0_49734_47570"><rect width="32" height="32" fill="#fff" transform="translate(0 0.879883)"/></clipPath></defs></svg>