<?xml version="1.0" encoding="UTF-8"?>
<svg version="1.1" xmlns="http://www.w3.org/2000/svg" width="800" height="800">
<path d="M0 0 C1.15070984 -0.00701431 2.30141968 -0.01402863 3.48699951 -0.02125549 C7.17887326 -0.03866236 10.87058672 -0.04510747 14.5625 -0.046875 C16.45264832 -0.04788712 16.45264832 -0.04788712 18.38098145 -0.04891968 C36.32361576 -0.03362587 53.82661094 0.29164417 71.5625 3.203125 C72.67689453 3.37473145 73.79128906 3.54633789 74.93945312 3.72314453 C138.66705841 13.63298198 199.53025367 37.93548273 251.5625 76.203125 C252.2332959 76.68990723 252.9040918 77.17668945 253.59521484 77.67822266 C276.41918295 94.24620716 298.3051762 113.65721493 316.5625 135.203125 C317.4506022 136.21721619 318.3400464 137.2301329 319.23046875 138.2421875 C337.88338991 159.54222288 353.70318068 183.12256434 367.31201172 207.92822266 C368.42315235 209.94962219 369.55327237 211.9585772 370.69140625 213.96484375 C398.77459614 264.62805298 415.52844643 326.68428802 415.765625 384.640625 C415.77263931 385.79133484 415.77965363 386.94204468 415.78688049 388.12762451 C415.80428736 391.81949826 415.81073247 395.51121172 415.8125 399.203125 C415.81351212 401.09327332 415.81351212 401.09327332 415.81454468 403.02160645 C415.79925087 420.96424076 415.47398083 438.46723594 412.5625 456.203125 C412.39089355 457.31751953 412.21928711 458.43191406 412.04248047 459.58007812 C402.13264302 523.30768341 377.83014227 584.17087867 339.5625 636.203125 C339.07571777 636.8739209 338.58893555 637.5447168 338.08740234 638.23583984 C321.51941784 661.05980795 302.10841007 682.9458012 280.5625 701.203125 C279.54840881 702.0912272 278.5354921 702.9806714 277.5234375 703.87109375 C256.22340212 722.52401491 232.64306066 738.34380568 207.83740234 751.95263672 C205.81600281 753.06377735 203.8070478 754.19389737 201.80078125 755.33203125 C151.13757202 783.41522114 89.08133698 800.16907143 31.125 800.40625 C29.97429016 800.41326431 28.82358032 800.42027863 27.63800049 800.42750549 C23.94612674 800.44491236 20.25441328 800.45135747 16.5625 800.453125 C14.67235168 800.45413712 14.67235168 800.45413712 12.74401855 800.45516968 C-5.19861576 800.43987587 -22.70161094 800.11460583 -40.4375 797.203125 C-41.55189453 797.03151855 -42.66628906 796.85991211 -43.81445312 796.68310547 C-107.54205841 786.77326802 -168.40525367 762.47076727 -220.4375 724.203125 C-221.1082959 723.71634277 -221.7790918 723.22956055 -222.47021484 722.72802734 C-245.29418295 706.16004284 -267.1801762 686.74903507 -285.4375 665.203125 C-286.3256022 664.18903381 -287.2150464 663.1761171 -288.10546875 662.1640625 C-306.75838991 640.86402712 -322.57818068 617.28368566 -336.18701172 592.47802734 C-337.29815235 590.45662781 -338.42827237 588.4476728 -339.56640625 586.44140625 C-367.64959614 535.77819702 -384.40344643 473.72196198 -384.640625 415.765625 C-384.64763931 414.61491516 -384.65465363 413.46420532 -384.66188049 412.27862549 C-384.67928736 408.58675174 -384.68573247 404.89503828 -384.6875 401.203125 C-384.68817474 399.94302612 -384.68884949 398.68292725 -384.68954468 397.38464355 C-384.67425087 379.44200924 -384.34898083 361.93901406 -381.4375 344.203125 C-381.26589355 343.08873047 -381.09428711 341.97433594 -380.91748047 340.82617188 C-371.00764302 277.09856659 -346.70514227 216.23537133 -308.4375 164.203125 C-307.95071777 163.5323291 -307.46393555 162.8615332 -306.96240234 162.17041016 C-290.39441784 139.34644205 -270.98341007 117.4604488 -249.4375 99.203125 C-248.42340881 98.3150228 -247.4104921 97.4255786 -246.3984375 96.53515625 C-225.09840212 77.88223509 -201.51806066 62.06244432 -176.71240234 48.45361328 C-174.69100281 47.34247265 -172.6820478 46.21235263 -170.67578125 45.07421875 C-120.01257202 16.99102886 -57.95633698 0.23717857 0 0 Z " fill="#A22E58" transform="translate(384.4375,-0.203125)"/>
<path d="M0 0 C0.72740387 -0.00367584 1.45480774 -0.00735168 2.20425415 -0.01113892 C4.28621175 -0.01665384 6.36734071 -0.00593639 8.44921875 0.01171875 C10.25459106 0.02464966 10.25459106 0.02464966 12.09643555 0.0378418 C15.24068626 0.30636697 17.47738883 0.96930634 20.3125 2.3125 C19.77876931 6.34357125 18.72971664 8.40045921 16.0625 11.4375 C11.28836391 17.15095167 7.18195828 23.25382884 3.05761719 29.44775391 C-6.11704921 43.10313658 -6.11704921 43.10313658 -11.6875 45.3125 C-13.79956055 45.59960938 -13.79956055 45.59960938 -16.07421875 45.65625 C-16.92121338 45.68428711 -17.76820801 45.71232422 -18.64086914 45.74121094 C-19.54313232 45.76473633 -20.44539551 45.78826172 -21.375 45.8125 C-64.48139125 47.48423649 -104.0880716 62.72932118 -136.6875 91.3125 C-137.94240234 92.40304687 -137.94240234 92.40304687 -139.22265625 93.515625 C-141.74573823 95.74623226 -144.22346796 98.0169153 -146.6875 100.3125 C-147.48800781 101.04726563 -148.28851563 101.78203125 -149.11328125 102.5390625 C-156.64744487 109.72475603 -162.67417214 117.85759405 -168.6875 126.3125 C-169.12594238 126.92222656 -169.56438477 127.53195312 -170.01611328 128.16015625 C-180.76976 143.22105431 -189.52381643 159.60721305 -195.05224609 177.29052734 C-195.69423162 179.33392631 -196.3691003 181.36406462 -197.05078125 183.39453125 C-205.8083812 209.85210404 -208.42160767 238.72278065 -203.99511719 266.28710938 C-203.66142401 268.48418761 -203.39421749 270.68381656 -203.1328125 272.890625 C-201.44002544 286.47660633 -197.91568446 299.30848381 -193.6875 312.3125 C-193.44128906 313.07046875 -193.19507813 313.8284375 -192.94140625 314.609375 C-185.27473951 337.65268972 -172.73060885 359.11186962 -156.6875 377.3125 C-155.83671875 378.28445313 -154.9859375 379.25640625 -154.109375 380.2578125 C-128.81501617 408.73738689 -95.71760732 428.52414125 -59.6875 440.3125 C-58.59050781 440.68117188 -57.49351562 441.04984375 -56.36328125 441.4296875 C-50.26922845 443.40241727 -44.11402123 445.00322688 -37.875 446.4375 C-37.20090088 446.59621582 -36.52680176 446.75493164 -35.83227539 446.91845703 C-21.09312862 450.17480006 -6.40611452 450.72089172 8.625 450.6875 C9.59127319 450.68662384 10.55754639 450.68574768 11.55310059 450.68484497 C44.38354865 450.58694576 74.95330365 444.07297924 104.80517578 430.14990234 C105.61325684 429.77430176 106.42133789 429.39870117 107.25390625 429.01171875 C107.98424072 428.66326904 108.7145752 428.31481934 109.46704102 427.95581055 C110.07604248 427.74351807 110.68504395 427.53122559 111.3125 427.3125 C111.9725 427.6425 112.6325 427.9725 113.3125 428.3125 C64.47666197 459.75475188 3.94789234 467.14679631 -52.48339844 455.40258789 C-83.51093249 448.63193326 -112.38035699 436.76451995 -137.6875 417.3125 C-139.03714844 416.27996094 -139.03714844 416.27996094 -140.4140625 415.2265625 C-145.58296352 411.17785675 -150.48833122 406.87598384 -155.33203125 402.4453125 C-157.35061204 400.61754283 -159.40978353 398.86903806 -161.5 397.125 C-196.57152374 366.34938579 -222.29953116 319.51347713 -229.34765625 273.50488281 C-229.58502606 271.97357471 -229.83614162 270.44436216 -230.09765625 268.91699219 C-240.02528935 210.53624886 -225.73934078 147.99538891 -191.75 99.5 C-186.44789855 92.09569155 -180.73773125 85.11326627 -174.6875 78.3125 C-174.24583496 77.80912109 -173.80416992 77.30574219 -173.34912109 76.78710938 C-134.901396 33.04738269 -79.20780162 5.55982512 -21.22949219 0.53515625 C-14.1574228 0.09059275 -7.08435807 0.0175104 0 0 Z " fill="#FDFBFC" transform="translate(425.6875,164.6875)"/>
<path d="M0 0 C0.1491107 4.71380981 0.25756634 9.42622683 0.32958984 14.1418457 C0.35963274 15.74332613 0.40048117 17.34464379 0.45263672 18.94555664 C0.92969824 33.97299451 0.92969824 33.97299451 -2.703125 38.32421875 C-4.35986328 39.79077148 -4.35986328 39.79077148 -6 41 C-6.84820312 41.74765625 -7.69640625 42.4953125 -8.5703125 43.265625 C-9.41335938 43.92046875 -10.25640625 44.5753125 -11.125 45.25 C-17.35738031 50.22742482 -23.19448131 55.53790636 -29 61 C-29.70898438 61.65484375 -30.41796875 62.3096875 -31.1484375 62.984375 C-37.49265819 69.04375313 -42.75750641 75.9943904 -48 83 C-48.7437085 83.99314209 -48.7437085 83.99314209 -49.50244141 85.00634766 C-74.75427562 119.0357747 -88.69238989 158.16890921 -94 200 C-94.09716309 200.75466553 -94.19432617 201.50933105 -94.29443359 202.28686523 C-95.16549091 209.86287449 -95.24232911 217.44350526 -95.25 225.0625 C-95.25100708 225.76153442 -95.25201416 226.46056885 -95.25305176 227.18078613 C-95.24007543 240.61433353 -94.16646397 253.7304082 -92 267 C-91.86078125 267.85916016 -91.7215625 268.71832031 -91.578125 269.60351562 C-81.83986665 327.44696687 -55.55155164 377.52398967 -9 414 C-8.03835938 414.77859375 -7.07671875 415.5571875 -6.0859375 416.359375 C16.9295628 434.65524106 43.20997788 447.65519173 71 457 C71.86093262 457.29100586 72.72186523 457.58201172 73.60888672 457.88183594 C132.63815881 477.3632167 199.25146874 471.67978713 254.74267578 444.14306641 C272.19682971 435.30461208 288.1666143 424.79882243 303 412 C303.75667969 411.35417969 304.51335937 410.70835937 305.29296875 410.04296875 C316.74019646 400.01466039 327.78902551 389.21831252 337.203125 377.25 C339.61163237 374.23412991 342.13495734 371.5855263 345 369 C345.66 369 346.32 369 347 369 C346.5414711 374.15262137 344.71392443 377.4993679 341.6875 381.5625 C341.2438208 382.16892334 340.8001416 382.77534668 340.34301758 383.40014648 C335.37192679 390.05330863 329.77799859 396.04957746 324 402 C323.48034668 402.54543457 322.96069336 403.09086914 322.42529297 403.65283203 C315.05888044 411.38223378 307.35051254 418.26810124 298.79589844 424.65722656 C296.99187578 426.00607439 295.20281319 427.37317625 293.4140625 428.7421875 C252.20263351 459.96883403 200.13991455 481.33653512 148 482 C147.00242676 482.02433105 146.00485352 482.04866211 144.97705078 482.07373047 C90.29227743 483.35771013 34.64453214 468.3550507 -10 436 C-11.02738281 435.26394531 -12.05476563 434.52789063 -13.11328125 433.76953125 C-28.47098394 422.51518362 -43.90350811 409.76277201 -56 395 C-56.73089844 394.15695312 -57.46179688 393.31390625 -58.21484375 392.4453125 C-70.77076997 377.8066497 -80.77217729 361.89832007 -90 345 C-90.51095215 344.07912598 -91.0219043 343.15825195 -91.54833984 342.20947266 C-107.76218045 312.89846886 -116.25065607 282.99356338 -120.61450195 249.89233398 C-120.8963152 247.77793146 -121.20719867 245.66734654 -121.53491211 243.55957031 C-126.63378118 204.53515504 -119.12813155 158.65811626 -103.25390625 122.87890625 C-102.36968872 120.84878686 -101.54970397 118.79009917 -100.77734375 116.71484375 C-90.21400552 88.41248855 -72.49910367 62.03856205 -52 40 C-50.82877852 38.64977087 -49.66192767 37.29573509 -48.5 35.9375 C-40.03941616 26.24593052 -30.47408568 17.94686225 -20.5 9.875 C-19.57453369 9.12029419 -19.57453369 9.12029419 -18.63037109 8.3503418 C-15.45349401 5.8022129 -12.2124739 3.35984389 -8.84375 1.0703125 C-8.22693359 0.64766113 -7.61011719 0.22500977 -6.97460938 -0.21044922 C-4.34795141 -1.26072269 -2.6756103 -0.74521644 0 0 Z " fill="#FDFCFC" transform="translate(279,171)"/>
<path d="M0 0 C1.27230469 0.00902344 2.54460937 0.01804688 3.85546875 0.02734375 C5.31919922 0.04474609 5.31919922 0.04474609 6.8125 0.0625 C7.5390625 2.2421875 7.5390625 2.2421875 7.8125 5.0625 C6.3984375 7.5078125 6.3984375 7.5078125 4.1875 10.1875 C3.35105949 11.23216189 2.51934243 12.28061655 1.69140625 13.33203125 C1.00328857 14.20529053 1.00328857 14.20529053 0.30126953 15.09619141 C-3.16991234 19.68079272 -6.30189707 24.51748233 -9.49267578 29.29931641 C-11.02801441 31.57601645 -12.60017069 33.82183368 -14.1875 36.0625 C-14.84540527 37.05612549 -14.84540527 37.05612549 -15.51660156 38.06982422 C-19.73096403 43.82013494 -24.83928447 44.94563047 -31.5625 46.5625 C-41.6270049 49.23689347 -50.8538407 52.46548483 -60.1875 57.0625 C-61.15300781 57.53171875 -62.11851562 58.0009375 -63.11328125 58.484375 C-99.36501771 77.16110174 -125.52914551 110.7327269 -138.16918945 149.09570312 C-140.91345035 157.915519 -142.63244804 166.96818529 -144.1875 176.0625 C-144.38472656 177.11824219 -144.58195312 178.17398438 -144.78515625 179.26171875 C-145.41710225 185.23146108 -145.33082495 191.18913269 -145.3125 197.1875 C-145.31636719 198.43015625 -145.32023437 199.6728125 -145.32421875 200.953125 C-145.31136513 213.2668926 -144.63711171 224.87520457 -141.5 236.8125 C-141.2323584 237.84890625 -140.9647168 238.8853125 -140.68896484 239.953125 C-136.75235655 254.86011739 -131.5016663 268.49381694 -124.1875 282.0625 C-123.64480469 283.08730469 -123.10210937 284.11210937 -122.54296875 285.16796875 C-114.96752846 298.82587934 -104.98442429 310.85347936 -94.1875 322.0625 C-93.15302734 323.19171875 -93.15302734 323.19171875 -92.09765625 324.34375 C-81.59088932 335.47567964 -68.4723416 344.56541106 -55.1875 352.0625 C-54.1960498 352.63581055 -54.1960498 352.63581055 -53.18457031 353.22070312 C-39.79294611 360.91311539 -25.86172742 366.31712757 -11.1875 371.0625 C-10.3737793 371.32933594 -9.56005859 371.59617187 -8.72167969 371.87109375 C6.6733177 376.79217283 22.81896846 378.25304086 38.8125 380.0625 C35.56433411 383.31066589 31.66711012 382.35730219 27.24023438 382.39208984 C25.29600586 382.38363037 25.29600586 382.38363037 23.3125 382.375 C22.65290283 382.37284485 21.99330566 382.3706897 21.3137207 382.36846924 C-29.50576703 382.10111212 -77.71161546 356.95609653 -113.5 322 C-118.4186829 316.96115384 -122.82387243 311.58248888 -127.1875 306.0625 C-128.07170659 304.97947969 -128.95717001 303.89748452 -129.84375 302.81640625 C-149.31547509 278.86735448 -163.65614526 251.11784318 -168.76147461 220.55786133 C-169.05748193 218.82405568 -169.3806282 217.09475313 -169.72485352 215.36987305 C-171.35024696 206.82046268 -171.5462067 198.41586829 -171.5 189.75 C-171.49751251 189.00405579 -171.49502502 188.25811157 -171.49246216 187.48956299 C-171.23076822 136.5306168 -151.69492354 92.10636664 -117.1875 55.0625 C-116.46433594 54.27359375 -115.74117188 53.4846875 -114.99609375 52.671875 C-88.92660462 25.32317236 -51.22375164 6.62295044 -13.96875 1.60546875 C-2.6207775 -0.02404383 -2.6207775 -0.02404383 0 0 Z " fill="#FDFCFD" transform="translate(401.1875,216.9375)"/>
<path d="M0 0 C0 4 0 4 -2.52734375 6.84765625 C-3.65628838 7.92745779 -4.7935566 8.99860112 -5.9375 10.0625 C-27.91592945 31.28963208 -46.75357776 61.21044955 -48.16113281 92.5925293 C-48.20716954 96.95772105 -48.2461629 101.32206316 -48.25 105.6875 C-48.25100708 106.47522797 -48.25201416 107.26295593 -48.25305176 108.07455444 C-48.23829514 125.104774 -46.41720575 140.73096409 -41 157 C-40.76297363 157.72155273 -40.52594727 158.44310547 -40.28173828 159.18652344 C-30.09599274 189.78851852 -11.00037477 213.10639434 15 232 C16.77621937 233.36803525 18.54768366 234.74228564 20.3125 236.125 C21.38951172 236.96417969 21.38951172 236.96417969 22.48828125 237.8203125 C22.98714844 238.20960938 23.48601562 238.59890625 24 239 C21 240 21 240 18.86328125 239.20703125 C-21.57818477 217.09737831 -52.12098085 178.68267398 -65.3046875 134.7578125 C-75.73785859 97.69737432 -69.69548117 59.12154978 -53.875 24.625 C-53.56264404 23.94107178 -53.25028809 23.25714355 -52.9284668 22.55249023 C-49.46327425 15.33205904 -45.89458356 10.79903683 -38.125 7.875 C-37.15240234 7.50725464 -37.15240234 7.50725464 -36.16015625 7.13208008 C-24.43281047 2.82047282 -12.55368101 -0.22024002 0 0 Z " fill="#FDFBFC" transform="translate(336,317)"/>
<path d="M0 0 C0.68513672 0.00515625 1.37027344 0.0103125 2.07617188 0.015625 C7.12737462 0.09493731 7.12737462 0.09493731 9.4375 1.25 C9.01758411 5.30918694 8.58700149 9.33929625 7.92578125 13.3671875 C6.51344267 22.04155071 6.13885979 30.37937852 6.37988281 39.13720703 C6.43483478 41.15226775 6.46416505 43.16797867 6.4921875 45.18359375 C7.01441486 60.43570451 11.33799827 74.91444909 16.51953125 89.18359375 C17.38490762 92.07431906 17.63314206 94.25947142 17.4375 97.25 C11.27624061 92.79427954 8.09931775 86.72900926 4.4375 80.25 C3.82390625 79.17363281 3.2103125 78.09726562 2.578125 76.98828125 C-2.65730522 67.20080662 -5.73912719 56.94578557 -8.5625 46.25 C-8.76045166 45.59128906 -8.95840332 44.93257813 -9.16235352 44.25390625 C-11.11651219 37.04604371 -10.89932082 29.62031784 -10.87817383 22.20947266 C-10.87497858 19.85924332 -10.89866094 17.51023377 -10.92382812 15.16015625 C-10.92609818 13.66145991 -10.92680598 12.16276021 -10.92578125 10.6640625 C-10.934991 9.96407135 -10.94420074 9.2640802 -10.95368958 8.5428772 C-10.92641147 5.69003256 -10.87289431 3.7125689 -9.25878906 1.30712891 C-6.39655634 -0.47661716 -3.25923432 -0.09867124 0 0 Z " fill="#FDFBFB" transform="translate(307.5625,403.75)"/>
<path d="M0 0 C3.75246158 0.50297545 7.41270421 1.07599073 11.08984375 1.984375 C26.08889602 5.44370891 41.84196099 5.54321705 57.15234375 6.046875 C57.15234375 6.376875 57.15234375 6.706875 57.15234375 7.046875 C36.18469427 8.62279382 16.52290531 7.43836495 -3.84765625 2.046875 C-1.84765625 0.046875 -1.84765625 0.046875 0 0 Z " fill="#F0E0E2" transform="translate(367.84765625,615.953125)"/>
<path d="M0 0 C0.53625 0.12117187 1.0725 0.24234375 1.625 0.3671875 C9.68888269 2.09137294 17.81737973 3.04569937 26 4 C26 4.33 26 4.66 26 5 C28.31 5.33 30.62 5.66 33 6 C33 6.33 33 6.66 33 7 C24.46040428 7.25964987 16.41504362 6.54939514 8 5.125 C6.34291016 4.86396484 6.34291016 4.86396484 4.65234375 4.59765625 C-4.17551114 3.14958771 -4.17551114 3.14958771 -8 1 C-5.36 1.33 -2.72 1.66 0 2 C0 1.34 0 0.68 0 0 Z " fill="#ECD9DC" transform="translate(387,611)"/>
<path d="M0 0 C2.25831337 6.77494012 -0.39295016 13.89975938 -2.375 20.5 C-2.68848389 21.57834106 -2.68848389 21.57834106 -3.00830078 22.6784668 C-3.6484375 24.71875 -3.6484375 24.71875 -5 28 C-5.99 28.33 -6.98 28.66 -8 29 C-7.43615943 22.26567877 -5.65441874 16.36541026 -3.4375 10 C-3.10814453 9.03449219 -2.77878906 8.06898438 -2.43945312 7.07421875 C-1.63313798 4.71370194 -0.81987837 2.35583283 0 0 Z " fill="#EED9E2" transform="translate(230,332)"/>
<path d="M0 0 C2.0625 0.4375 2.0625 0.4375 4 1 C4 1.66 4 2.32 4 3 C2.33333333 4.66666667 0.66666667 6.33333333 -1 8 C-1.680625 9.051875 -2.36125 10.10375 -3.0625 11.1875 C-4.94867293 13.92549296 -5.93415694 14.90505605 -9 16 C-7.50851242 10.18319845 -4.28706435 4.28706435 0 0 Z " fill="#F6EAEF" transform="translate(291,328)"/>
<path d="M0 0 C3 1 3 1 4.71875 4.421875 C5.32332843 5.8600792 5.91663856 7.30305984 6.5 8.75 C7.0904759 10.18364455 7.68416327 11.61597112 8.28125 13.046875 C8.56484375 13.72814453 8.8484375 14.40941406 9.140625 15.11132812 C10.0529424 17.22065932 10.0529424 17.22065932 11.78125 19.890625 C12.1834375 20.58671875 12.585625 21.2828125 13 22 C12.67 22.66 12.34 23.32 12 24 C7.45660643 20.34686598 5.85701427 15.56833004 3.75 10.3125 C3.38648438 9.43271484 3.02296875 8.55292969 2.6484375 7.64648438 C0 1.1896734 0 1.1896734 0 0 Z " fill="#EBD6DA" transform="translate(274,461)"/>
<path d="M0 0 C6.48472993 0.73690113 12.69239743 2.35318751 19 4 C19 4.66 19 5.32 19 6 C11.75841435 5.64999003 5.65594553 4.94397591 -1 2 C-0.67 1.34 -0.34 0.68 0 0 Z " fill="#F8F0F1" transform="translate(368,607)"/>
<path d="M0 0 C0 0.33 0 0.66 0 1 C-1.11375 1.12375 -2.2275 1.2475 -3.375 1.375 C-7.03103677 1.6465813 -7.03103677 1.6465813 -9 4 C-11.2421875 4.484375 -11.2421875 4.484375 -13.875 4.75 C-14.73867188 4.84796875 -15.60234375 4.9459375 -16.4921875 5.046875 C-19.22283899 4.99583479 -20.68653065 4.39884193 -23 3 C-7.25512528 -0.44419134 -7.25512528 -0.44419134 0 0 Z " fill="#EED5E2" transform="translate(336,317)"/>
<path d="M0 0 C2 2 2 2 2.01171875 4.4609375 C1.85123047 5.90339844 1.85123047 5.90339844 1.6875 7.375 C1.58824219 8.33148438 1.48898437 9.28796875 1.38671875 10.2734375 C0.69393382 15.15792112 0.69393382 15.15792112 0 17 C-0.99 17.33 -1.98 17.66 -3 18 C-2.41509121 11.85845775 -1.45933748 5.99320151 0 0 Z " fill="#F6ECF0" transform="translate(271,371)"/>
<path d="M0 0 C0.33 0 0.66 0 1 0 C1.10331031 7.42686315 0.99862699 14.63512596 0 22 C-0.99 21.34 -1.98 20.68 -3 20 C-2.69055299 17.41626766 -2.37756043 14.83304867 -2.0625 12.25 C-1.97548828 11.52039063 -1.88847656 10.79078125 -1.79882812 10.0390625 C-1.37972591 6.62415558 -0.882726 3.32396457 0 0 Z " fill="#EBD3DC" transform="translate(221,362)"/>
<path d="M0 0 C0.66 0.33 1.32 0.66 2 1 C1.40895235 5.84659077 0.02055843 9.60748167 -2 14 C-2.66 14 -3.32 14 -4 14 C-3.34 10.7 -2.68 7.4 -2 4 C-1.34 4 -0.68 4 0 4 C-0.33 3.01 -0.66 2.02 -1 1 C-0.67 0.67 -0.34 0.34 0 0 Z " fill="#F7ECF1" transform="translate(234,323)"/>
<path d="M0 0 C1.03115279 3.26913624 0.9638984 5.86041348 0.5625 9.25 C0.46066406 10.14203125 0.35882813 11.0340625 0.25390625 11.953125 C0.12822266 12.96632813 0.12822266 12.96632813 0 14 C-0.99 14.33 -1.98 14.66 -3 15 C-2.44854729 9.76119922 -1.57077907 5.02649303 0 0 Z " fill="#E6C6D2" transform="translate(225,346)"/>
<path d="M0 0 C0.598125 0.226875 1.19625 0.45375 1.8125 0.6875 C1.8125 2.6875 1.8125 2.6875 -0.5625 5.25 C-3.1875 7.6875 -3.1875 7.6875 -5.1875 8.6875 C-5.55003776 3.24943353 -5.55003776 3.24943353 -3.9375 0.75 C-2.1875 -0.3125 -2.1875 -0.3125 0 0 Z " fill="#EFD9E3" transform="translate(293.1875,328.3125)"/>
<path d="M0 0 C0.66 0.33 1.32 0.66 2 1 C-1.63 3.31 -5.26 5.62 -9 8 C-9.33 7.34 -9.66 6.68 -10 6 C-7.31100548 2.67830089 -3.94687492 1.43522725 0 0 Z " fill="#F0E1E4" transform="translate(537,592)"/>
<path d="M0 0 C2.62187494 1.04874998 3.79371361 1.64931313 5.25 4.125 C5.4975 4.74375 5.745 5.3625 6 6 C4.68 6 3.36 6 2 6 C1.34 4.02 0.68 2.04 0 0 Z " fill="#F4E9EB" transform="translate(285,484)"/>
</svg>
