<svg xmlns="http://www.w3.org/2000/svg" xmlns:svg="http://www.w3.org/2000/svg" id="svg77" width="240" height="240" fill="none" version="1.1" viewBox="0 0 240 240"><mask id="mask0_379_88" style="mask-type:alpha" width="240" height="240" x="0" y="0" maskUnits="userSpaceOnUse"><circle id="circle2" cx="120" cy="120" r="115" fill="#BC11FF" stroke="#CA44FF" stroke-width="10"/></mask><g id="g75" mask="url(#mask0_379_88)"><circle id="circle5" cx="120" cy="120" r="120" fill="#F5F5F0"/><rect id="rect7" width="236.203" height="95.85" y="143.773" fill="#113857"/><rect id="rect9" width="10.27" height="6.846" fill="#113857" transform="matrix(1 0 0 -1 195.129 140.352)"/><rect id="rect11" width="65.041" height="6.846" fill="#113857" transform="matrix(1 0 0 -1 164.316 147.203)"/><rect id="rect13" width="30.809" height="6.846" fill="#113857" transform="matrix(1 0 0 -1 198.555 140.352)"/><rect id="rect15" width="30.809" height="6.846" fill="#113857" transform="matrix(1 0 0 -1 215.668 126.664)"/><rect id="rect17" width="30.809" height="6.846" fill="#113857" transform="matrix(1 0 0 -1 201.973 133.5)"/><rect id="rect19" width="30.809" height="6.846" fill="#113857" transform="matrix(1 0 0 -1 219.086 119.812)"/><rect id="rect21" width="6.846" height="6.846" fill="#113857" transform="matrix(1 0 0 -1 17.1211 106.117)"/><rect id="rect23" width="6.846" height="6.846" fill="#113857" transform="matrix(1 0 0 -1 23.9648 112.969)"/><rect id="rect25" width="6.846" height="6.846" fill="#113857" transform="matrix(1 0 0 -1 30.8125 102.695)"/><rect id="rect27" width="6.846" height="6.846" fill="#113857" transform="matrix(1 0 0 -1 23.9648 95.8438)"/><rect id="rect29" width="17.116" height="6.846" fill="#113857" transform="matrix(1 0 0 -1 109.543 143.773)"/><rect id="rect31" width="6.846" height="6.846" fill="#113857" transform="matrix(1 0 0 -1 23.9648 123.242)"/><rect id="rect33" width="6.846" height="6.846" fill="#113857" transform="matrix(1 0 0 -1 212.246 112.969)"/><rect id="rect35" width="6.846" height="6.846" fill="#113857" transform="matrix(1 0 0 -1 205.395 106.117)"/><rect id="rect37" width="6.846" height="6.846" fill="#113857" transform="matrix(1 0 0 -1 198.555 99.2812)"/><rect id="rect39" width="6.846" height="6.846" fill="#113857" transform="matrix(1 0 0 -1 219.086 102.695)"/><rect id="rect41" width="6.846" height="6.846" fill="#113857" transform="matrix(1 0 0 -1 205.395 119.812)"/><rect id="rect43" width="30.809" height="6.846" fill="#113857" transform="matrix(1 0 0 -1 225.938 112.969)"/><rect id="rect45" width="68.465" height="6.846" fill="#113857" transform="matrix(1 0 0 -1 6.84766 147.203)"/><rect id="rect47" width="37.656" height="6.846" fill="#113857" transform="matrix(1 0 0 -1 3.42969 140.352)"/><rect id="rect49" width="37.656" height="6.846" fill="#113857" transform="matrix(1 0 0 -1 -6.84375 133.5)"/><rect id="rect51" width="37.656" height="6.846" fill="#113857" transform="matrix(1 0 0 -1 -13.6914 126.664)"/><rect id="rect53" width="37.656" height="6.846" fill="#113857" transform="matrix(1 0 0 -1 -13.6914 119.812)"/><rect id="rect55" width="37.656" height="6.846" fill="#113857" transform="matrix(1 0 0 -1 -20.5352 112.969)"/><rect id="rect57" width="37.656" height="6.846" fill="#113857" transform="matrix(1 0 0 -1 -23.957 106.117)"/><circle id="circle59" cx="120" cy="120" r="115" stroke="#113857" stroke-width="10"/><rect id="rect61" width="13.693" height="6.846" fill="#F5F5F0" transform="matrix(1 0 0 -1 205.395 140.352)"/><rect id="rect63" width="13.693" height="6.846" fill="#F5F5F0" transform="matrix(1 0 0 -1 61.6211 154.047)"/><rect id="rect65" width="13.693" height="6.846" fill="#F5F5F0" transform="matrix(1 0 0 -1 212.246 133.5)"/><rect id="rect67" width="13.693" height="6.846" fill="#F5F5F0" transform="matrix(1 0 0 -1 181.438 147.203)"/><rect id="rect69" width="20.539" height="6.846" fill="#F5F5F0" transform="matrix(1 0 0 -1 27.3867 147.203)"/><path id="path71" fill="#113857" d="M149.979 78.7877V100.005L138.132 111.852H127.147V123.699H114.869V111.852H103.237L91.6055 100.22V89.45H106.037V95.8043L109.591 99.3584H114.869V79.6493H103.453L91.8209 68.0177V48.0932L103.453 36.4616H114.869V24.6146H127.147V36.4616H137.486L149.117 48.0932V58.9709H134.686V52.5089L131.131 48.9548H127.147V67.1561H138.347L149.979 78.7877ZM114.869 67.1561V48.9548H109.807L106.253 52.5089V63.602L109.807 67.1561H114.869ZM135.547 83.2034L131.993 79.6493H127.147V99.3584H131.885L135.547 95.6966V83.2034Z"/><path id="path73" fill="#F5F5F0" d="M75.7575 163.78H104.122L111.035 170.758V186.588L104.057 193.63H84.5446V209.008H75.7575V163.78ZM100.116 186.265L102.377 184.003V173.407L100.116 171.146H84.5446V186.265H100.116ZM117.528 163.78H125.669L139.108 192.984H139.237L152.741 163.78H160.882V209.008H152.418V181.483H152.288L141.886 202.676H136.459L126.121 181.483H125.992V209.008H117.528V163.78Z"/></g></svg>