<?xml version="1.0" encoding="UTF-8" standalone="no"?>
<svg
   width="240"
   height="240"
   viewBox="0 0 240 240"
   fill="none"
   version="1.1"
   id="svg77"
   sodipodi:docname="584a04238e65c5a439ab98a97e4cb24c.svg"
   xmlns:inkscape="http://www.inkscape.org/namespaces/inkscape"
   xmlns:sodipodi="http://sodipodi.sourceforge.net/DTD/sodipodi-0.dtd"
   xmlns="http://www.w3.org/2000/svg"
   xmlns:svg="http://www.w3.org/2000/svg">
  <defs
     id="defs81" />
  <sodipodi:namedview
     id="namedview79"
     pagecolor="#ffffff"
     bordercolor="#666666"
     borderopacity="1.0"
     inkscape:pageshadow="2"
     inkscape:pageopacity="0.0"
     inkscape:pagecheckerboard="0" />
  <mask
     id="mask0_379_88"
     style="mask-type:alpha"
     maskUnits="userSpaceOnUse"
     x="0"
     y="0"
     width="240"
     height="240">
    <circle
       cx="120"
       cy="120"
       r="115"
       fill="#BC11FF"
       stroke="#CA44FF"
       stroke-width="10"
       id="circle2" />
  </mask>
  <g
     mask="url(#mask0_379_88)"
     id="g75">
    <circle
       cx="120"
       cy="120"
       r="120"
       fill="#F5F5F0"
       id="circle5" />
    <rect
       y="143.773"
       width="236.203"
       height="95.8505"
       fill="#113857"
       id="rect7" />
    <rect
       width="10.2697"
       height="6.84647"
       transform="matrix(1 0 0 -1 195.129 140.352)"
       fill="#113857"
       id="rect9" />
    <rect
       width="65.0414"
       height="6.84647"
       transform="matrix(1 0 0 -1 164.316 147.203)"
       fill="#113857"
       id="rect11" />
    <rect
       width="30.8091"
       height="6.84647"
       transform="matrix(1 0 0 -1 198.555 140.352)"
       fill="#113857"
       id="rect13" />
    <rect
       width="30.8091"
       height="6.84647"
       transform="matrix(1 0 0 -1 215.668 126.664)"
       fill="#113857"
       id="rect15" />
    <rect
       width="30.8091"
       height="6.84647"
       transform="matrix(1 0 0 -1 201.973 133.5)"
       fill="#113857"
       id="rect17" />
    <rect
       width="30.8091"
       height="6.84647"
       transform="matrix(1 0 0 -1 219.086 119.812)"
       fill="#113857"
       id="rect19" />
    <rect
       width="6.84647"
       height="6.84647"
       transform="matrix(1 0 0 -1 17.1211 106.117)"
       fill="#113857"
       id="rect21" />
    <rect
       width="6.84647"
       height="6.84647"
       transform="matrix(1 0 0 -1 23.9648 112.969)"
       fill="#113857"
       id="rect23" />
    <rect
       width="6.84647"
       height="6.84647"
       transform="matrix(1 0 0 -1 30.8125 102.695)"
       fill="#113857"
       id="rect25" />
    <rect
       width="6.84647"
       height="6.84647"
       transform="matrix(1 0 0 -1 23.9648 95.8438)"
       fill="#113857"
       id="rect27" />
    <rect
       width="17.1162"
       height="6.84647"
       transform="matrix(1 0 0 -1 109.543 143.773)"
       fill="#113857"
       id="rect29" />
    <rect
       width="6.84647"
       height="6.84647"
       transform="matrix(1 0 0 -1 23.9648 123.242)"
       fill="#113857"
       id="rect31" />
    <rect
       width="6.84647"
       height="6.84647"
       transform="matrix(1 0 0 -1 212.246 112.969)"
       fill="#113857"
       id="rect33" />
    <rect
       width="6.84647"
       height="6.84647"
       transform="matrix(1 0 0 -1 205.395 106.117)"
       fill="#113857"
       id="rect35" />
    <rect
       width="6.84647"
       height="6.84647"
       transform="matrix(1 0 0 -1 198.555 99.2812)"
       fill="#113857"
       id="rect37" />
    <rect
       width="6.84647"
       height="6.84647"
       transform="matrix(1 0 0 -1 219.086 102.695)"
       fill="#113857"
       id="rect39" />
    <rect
       width="6.84647"
       height="6.84647"
       transform="matrix(1 0 0 -1 205.395 119.812)"
       fill="#113857"
       id="rect41" />
    <rect
       width="30.8091"
       height="6.84647"
       transform="matrix(1 0 0 -1 225.938 112.969)"
       fill="#113857"
       id="rect43" />
    <rect
       width="68.4647"
       height="6.84647"
       transform="matrix(1 0 0 -1 6.84766 147.203)"
       fill="#113857"
       id="rect45" />
    <rect
       width="37.6556"
       height="6.84647"
       transform="matrix(1 0 0 -1 3.42969 140.352)"
       fill="#113857"
       id="rect47" />
    <rect
       width="37.6556"
       height="6.84647"
       transform="matrix(1 0 0 -1 -6.84375 133.5)"
       fill="#113857"
       id="rect49" />
    <rect
       width="37.6556"
       height="6.84647"
       transform="matrix(1 0 0 -1 -13.6914 126.664)"
       fill="#113857"
       id="rect51" />
    <rect
       width="37.6556"
       height="6.84647"
       transform="matrix(1 0 0 -1 -13.6914 119.812)"
       fill="#113857"
       id="rect53" />
    <rect
       width="37.6556"
       height="6.84647"
       transform="matrix(1 0 0 -1 -20.5352 112.969)"
       fill="#113857"
       id="rect55" />
    <rect
       width="37.6556"
       height="6.84647"
       transform="matrix(1 0 0 -1 -23.957 106.117)"
       fill="#113857"
       id="rect57" />
    <circle
       cx="120"
       cy="120"
       r="115"
       stroke="#113857"
       stroke-width="10"
       id="circle59" />
    <rect
       width="13.6929"
       height="6.84647"
       transform="matrix(1 0 0 -1 205.395 140.352)"
       fill="#F5F5F0"
       id="rect61" />
    <rect
       width="13.6929"
       height="6.84647"
       transform="matrix(1 0 0 -1 61.6211 154.047)"
       fill="#F5F5F0"
       id="rect63" />
    <rect
       width="13.6929"
       height="6.84647"
       transform="matrix(1 0 0 -1 212.246 133.5)"
       fill="#F5F5F0"
       id="rect65" />
    <rect
       width="13.6929"
       height="6.84647"
       transform="matrix(1 0 0 -1 181.438 147.203)"
       fill="#F5F5F0"
       id="rect67" />
    <rect
       width="20.5394"
       height="6.84647"
       transform="matrix(1 0 0 -1 27.3867 147.203)"
       fill="#F5F5F0"
       id="rect69" />
    <path
       d="M149.979 78.7877V100.005L138.132 111.852H127.147V123.699H114.869V111.852H103.237L91.6055 100.22V89.45H106.037V95.8043L109.591 99.3584H114.869V79.6493H103.453L91.8209 68.0177V48.0932L103.453 36.4616H114.869V24.6146H127.147V36.4616H137.486L149.117 48.0932V58.9709H134.686V52.5089L131.131 48.9548H127.147V67.1561H138.347L149.979 78.7877ZM114.869 67.1561V48.9548H109.807L106.253 52.5089V63.602L109.807 67.1561H114.869ZM135.547 83.2034L131.993 79.6493H127.147V99.3584H131.885L135.547 95.6966V83.2034Z"
       fill="#113857"
       id="path71" />
    <path
       d="M75.7575 163.78H104.122L111.035 170.758V186.588L104.057 193.63H84.5446V209.008H75.7575V163.78ZM100.116 186.265L102.377 184.003V173.407L100.116 171.146H84.5446V186.265H100.116ZM117.528 163.78H125.669L139.108 192.984H139.237L152.741 163.78H160.882V209.008H152.418V181.483H152.288L141.886 202.676H136.459L126.121 181.483H125.992V209.008H117.528V163.78Z"
       fill="#F5F5F0"
       id="path73" />
  </g>
</svg>
