<svg xmlns="http://www.w3.org/2000/svg" width="32" height="32" fill="none" viewBox="0 0 32 32"><g clip-path="url(#clip0_1978_54)"><path fill="#2775CA" d="M16 0C24.8667 0 32 7.13328 32 16C32 17.9661 31.6475 19.8463 31.0049 21.583C29.8017 19.606 27.6261 18.2861 25.1426 18.2861C21.3558 18.2863 18.2863 21.3557 18.2861 25.1426C18.2861 27.6264 19.6066 29.8018 21.584 31.0049C19.847 31.6477 17.9664 32 16 32C7.13328 32 0 24.8667 0 16C4.47584e-07 7.13328 7.13328 4.47554e-07 16 0Z"/><path fill="#fff" d="M12.633 4.46875C12.8995 4.53536 13.0324 4.73535 13.0324 5.00195V5.93554C13.0323 6.26868 12.8994 6.46831 12.633 6.60156C9.89974 7.60154 7.69941 9.73521 6.69939 12.5352C4.76595 17.6686 7.43298 23.4684 12.633 25.335C12.833 25.4684 13.0324 25.7356 13.0324 25.9356V26.8692C13.0324 27.0022 13.0326 27.0693 12.966 27.1358C12.8993 27.4021 12.6328 27.5352 12.3664 27.4024C8.6331 26.2024 5.7656 23.3349 4.5656 19.6016C2.56597 13.2685 6.03328 6.5351 12.3664 4.53515C12.4332 4.46886 12.5664 4.46875 12.633 4.46875ZM19.0978 4.80078C19.1645 4.53422 19.4318 4.40094 19.6984 4.53418C23.3649 5.73421 26.2982 8.60143 27.4982 12.4014C28.1781 14.5544 28.2239 16.7531 27.7424 18.7969C27.1093 18.5372 26.4292 18.3697 25.7179 18.3106C26.8836 13.4914 24.2442 8.3956 19.4318 6.66797C19.2318 6.53453 19.0314 6.26769 19.0314 6.00097V5.06738C19.0314 4.93424 19.0312 4.86742 19.0978 4.80078Z"/><path fill="#fff" d="M20.4646 18.3649C20.4646 16.0316 19.0645 15.2316 16.2645 14.8983C14.2645 14.6316 13.8645 14.0983 13.8645 13.1649C13.8645 12.2314 14.5313 11.6316 15.8645 11.6316C17.0645 11.6316 17.7314 12.0316 18.0646 13.0316C18.1314 13.2316 18.3313 13.3649 18.5313 13.3649H19.5978C19.8645 13.3649 20.0646 13.1649 20.0646 12.8983V12.8316C19.7979 11.3649 18.5979 10.2316 17.0646 10.0983V8.49828C17.0646 8.23156 16.8645 8.03156 16.5313 7.96484H15.5313C15.2645 7.96484 15.0645 8.16484 14.9978 8.49828V10.0316C12.9978 10.2983 11.7313 11.6316 11.7313 13.2983C11.7313 15.4983 13.0645 16.3649 15.8645 16.6983C17.7313 17.0316 18.3314 17.4316 18.3314 18.4983C18.3314 19.565 17.3978 20.2983 16.1313 20.2983C14.3978 20.2983 13.7978 19.5649 13.5978 18.5649C13.5313 18.2983 13.3313 18.1649 13.1313 18.1649H11.9978C11.7313 18.1649 11.5312 18.3649 11.5312 18.6316V18.6983C11.7979 20.3649 12.8645 21.5649 15.0645 21.8983V23.4983C15.0645 23.7649 15.2645 23.9649 15.5978 24.0316H16.5978C16.8645 24.0316 17.0645 23.8316 17.1313 23.4983V21.8983C19.1313 21.5649 20.4646 20.1649 20.4646 18.3649Z"/><path fill="url(#paint0_linear_1978_54)" d="M25.1429 30.2857C27.9832 30.2857 30.2857 27.9832 30.2857 25.1429C30.2857 22.3025 27.9832 20 25.1429 20C22.3025 20 20 22.3025 20 25.1429C20 27.9832 22.3025 30.2857 25.1429 30.2857Z"/><path fill="#fff" d="M26.145 25.6187H28.9076C29.0138 25.6187 29.0352 25.474 28.9386 25.4298L26.1451 24.1575V21.3842C26.1451 21.2807 26.0067 21.2467 25.9589 21.3385L24.8105 23.5497L23.5379 22.9652C23.4162 22.9161 23.3414 23.0152 23.3827 23.1004L24.1416 24.6658H21.379C21.2728 24.6658 21.2513 24.8105 21.348 24.8546L24.1414 26.1269V28.9003C24.1414 29.0038 24.2799 29.0378 24.3277 28.946L25.4761 26.7348L26.7487 27.3192C26.8704 27.3684 26.9452 27.2693 26.9038 27.1841L26.145 25.6187Z"/></g><defs><linearGradient id="paint0_linear_1978_54" x1="30.981" x2="19.654" y1="24.533" y2="24.339" gradientUnits="userSpaceOnUse"><stop stop-color="#FFCD4D"/><stop offset="1" stop-color="#FA43BD"/></linearGradient><clipPath id="clip0_1978_54"><rect width="32" height="32" fill="#fff"/></clipPath></defs></svg>