<svg width="32" height="32" viewBox="0 0 32 32" fill="none" xmlns="http://www.w3.org/2000/svg">
<mask id="mask0_153_2" style="mask-type:luminance" maskUnits="userSpaceOnUse" x="0" y="0" width="32" height="32">
<path d="M32 0H0V32H32V0Z" fill="white"/>
</mask>
<g mask="url(#mask0_153_2)">
<path d="M16 32C24.8667 32 32 24.8667 32 16C32 7.13328 24.8667 0 16 0C7.13328 0 0 7.13328 0 16C0 24.8667 7.13328 32 16 32Z" fill="url(#paint0_linear_153_2)"/>
<path d="M16 32C24.8667 32 32 24.8667 32 16C32 7.13328 24.8667 0 16 0C7.13328 0 0 7.13328 0 16C0 24.8667 7.13328 32 16 32Z" fill="url(#paint1_linear_153_2)"/>
<path d="M20.4 18.5328C20.4 16.1995 19 15.3995 16.2 15.0663C14.2 14.7996 13.8 14.2663 13.8 13.3328C13.8 12.3994 14.4668 11.7996 15.8 11.7996C17 11.7996 17.6668 12.1996 18 13.1996C18.0668 13.3996 18.2668 13.5328 18.4668 13.5328H19.5333C19.8 13.5328 20 13.3328 20 13.0663V12.9996C19.7333 11.5328 18.5333 10.3996 17.0001 10.2663V8.66631C17.0001 8.39956 16.8 8.19953 16.4668 8.13281H15.4668C15.2 8.13281 15 8.33284 14.9333 8.66631V10.1996C12.9333 10.4663 11.6668 11.7995 11.6668 13.4663C11.6668 15.6663 13 16.5328 15.8 16.8663C17.6668 17.1996 18.2668 17.5996 18.2668 18.6663C18.2668 19.733 17.3333 20.4663 16.0668 20.4663C14.3333 20.4663 13.7333 19.7328 13.5333 18.7328C13.4668 18.4663 13.2668 18.3328 13.0668 18.3328H11.9333C11.6668 18.3328 11.4668 18.5328 11.4668 18.7996V18.8663C11.7333 20.5328 12.8 21.7328 15 22.0663V23.6663C15 23.9328 15.2 24.1328 15.5333 24.1996H16.5333C16.8 24.1996 17 23.9996 17.0668 23.6663V22.0663C19.0668 21.7328 20.4 20.3328 20.4 18.5328Z" fill="white"/>
<path d="M12.6003 25.5326C7.40029 23.666 4.7336 17.866 6.66707 12.7326C7.66704 9.93258 9.86707 7.79933 12.6003 6.7993C12.867 6.66605 13.0003 6.46602 13.0003 6.13258V5.1993C13.0003 4.93258 12.867 4.73258 12.6003 4.66602C12.5336 4.66602 12.4003 4.66602 12.3336 4.73258C6.00032 6.73258 2.5336 13.466 4.5336 19.7993C5.7336 23.5326 8.60029 26.3993 12.3336 27.5993C12.6003 27.7325 12.867 27.5993 12.9336 27.3325C13.0003 27.266 13.0003 27.1993 13.0003 27.066V26.1325C13.0003 25.9326 12.8003 25.666 12.6003 25.5326ZM19.667 4.73258C19.4003 4.5993 19.1336 4.73258 19.0671 4.9993C19.0003 5.06602 19.0004 5.13258 19.0004 5.26602V6.19933C19.0004 6.46602 19.2003 6.73258 19.4004 6.86602C24.6004 8.73258 27.267 14.5325 25.3336 19.666C24.3336 22.466 22.1336 24.5993 19.4004 25.5993C19.1336 25.7325 19.0004 25.9326 19.0004 26.266V27.1993C19.0004 27.466 19.1336 27.666 19.4004 27.7325C19.4671 27.7325 19.6003 27.7325 19.667 27.666C26.0003 25.666 29.4671 18.9325 27.4671 12.5993C26.2671 8.7993 23.3336 5.93258 19.667 4.73258Z" fill="white"/>
</g>
<defs>
<linearGradient id="paint0_linear_153_2" x1="32" y1="0.622221" x2="-5.78002" y2="14.6348" gradientUnits="userSpaceOnUse">
<stop stop-color="#F87A31"/>
<stop offset="1" stop-color="#FE9D66"/>
</linearGradient>
<linearGradient id="paint1_linear_153_2" x1="19.5862" y1="16" x2="-9.20791" y2="2.65074" gradientUnits="userSpaceOnUse">
<stop stop-color="#FF8C73" stop-opacity="0"/>
<stop offset="1" stop-color="#FF8C73"/>
</linearGradient>
</defs>
</svg>
