<svg width="38" height="38" viewBox="0 0 38 38" fill="none" xmlns="http://www.w3.org/2000/svg">
<g clip-path="url(#clip0_5179_4610)">
<path d="M19 37.5C29.2173 37.5 37.5 29.2173 37.5 19C37.5 8.78273 29.2173 0.5 19 0.5C8.78273 0.5 0.5 8.78273 0.5 19C0.5 29.2173 8.78273 37.5 19 37.5Z" fill="url(#paint0_radial_5179_4610)"/>
<path d="M11.9247 23.8637H9.29199C9.50686 27.9739 12.9455 31.5469 19.0436 31.5469C25.115 31.5469 28.9834 28.2157 28.9834 23.9174C28.9834 15.7507 16.6528 16.2074 16.6528 11.4793C16.6528 10.163 17.6467 8.60479 19.957 8.60479C22.536 8.60479 25.5717 10.6197 25.7866 13.1986H28.3924C28.1238 9.03461 24.0673 6.1333 18.9093 6.1333C13.5634 6.1333 9.53374 9.24956 9.53374 13.6553C9.53374 22.0638 21.8644 20.9623 21.8644 26.1471C21.8644 27.759 20.8704 29.1022 18.3721 29.1022C15.2558 29.1022 12.1127 26.9262 11.9247 23.8637ZM14.1275 12.0972C14.1275 18.4908 26.3508 17.2282 26.3508 24.0518C26.3508 26.0934 25.0075 27.8934 23.3957 28.35C23.9598 27.8127 24.3896 26.6307 24.3896 25.5024C24.3896 19.1894 12.1395 20.049 12.1395 13.5747C12.1395 11.3987 13.5365 9.6525 15.2827 9.11525C14.611 9.92113 14.1275 10.9688 14.1275 12.0972Z" fill="white"/>
</g>
<defs>
<radialGradient id="paint0_radial_5179_4610" cx="0" cy="0" r="1" gradientUnits="userSpaceOnUse" gradientTransform="translate(19 43.3855) rotate(-90) scale(59.2835)">
<stop stop-color="#FFD232"/>
<stop offset="1" stop-color="#FF6D6D"/>
</radialGradient>
<clipPath id="clip0_5179_4610">
<rect width="37" height="37" fill="white" transform="translate(0.5 0.5)"/>
</clipPath>
</defs>
</svg>
