<?xml version="1.0" encoding="UTF-8"?>
<svg xmlns="http://www.w3.org/2000/svg" xmlns:xlink="http://www.w3.org/1999/xlink" width="64px" height="52px" viewBox="0 0 64 52" version="1.1">
<g id="surface1">
<path style=" stroke:none;fill-rule:evenodd;fill:rgb(82.745099%,69.803923%,35.686275%);fill-opacity:1;" d="M 13.894531 0.5 L 50.546875 0.5 C 51.417969 0.5 52.226562 0.953125 52.664062 1.6875 L 63.339844 19.726562 C 63.894531 20.660156 63.730469 21.84375 62.941406 22.601562 L 33.550781 50.828125 C 32.597656 51.742188 31.066406 51.742188 30.113281 50.828125 L 0.761719 22.640625 C -0.046875 21.863281 -0.199219 20.648438 0.398438 19.707031 L 11.8125 1.632812 C 12.253906 0.925781 13.042969 0.5 13.894531 0.5 Z M 45.8125 8.550781 L 45.8125 13.613281 L 35.371094 13.613281 L 35.371094 17.121094 C 42.703125 17.496094 48.207031 19.035156 48.246094 20.882812 L 48.246094 24.730469 C 48.207031 26.578125 42.703125 28.117188 35.371094 28.492188 L 35.371094 37.101562 L 28.441406 37.101562 L 28.441406 28.492188 C 21.105469 28.117188 15.605469 26.578125 15.566406 24.730469 L 15.566406 20.882812 C 15.605469 19.035156 21.105469 17.496094 28.441406 17.121094 L 28.441406 13.613281 L 18 13.613281 L 18 8.550781 Z M 31.90625 25.847656 C 39.730469 25.847656 46.273438 24.546875 47.871094 22.804688 C 46.515625 21.332031 41.605469 20.171875 35.371094 19.851562 L 35.371094 23.527344 C 34.253906 23.582031 33.09375 23.613281 31.90625 23.613281 C 30.714844 23.613281 29.558594 23.582031 28.441406 23.527344 L 28.441406 19.851562 C 22.207031 20.171875 17.296875 21.332031 15.941406 22.804688 C 17.539062 24.546875 24.082031 25.847656 31.90625 25.847656 Z M 31.90625 25.847656 "/>
</g>
</svg>
