<?xml version="1.0" encoding="UTF-8"?>
<svg version="1.1" xmlns="http://www.w3.org/2000/svg" width="200" height="200">
<path d="M0 0 C66 0 132 0 200 0 C200 66 200 132 200 200 C134 200 68 200 0 200 C0 134 0 68 0 0 Z " fill="#FEECEB" transform="translate(0,0)"/>
<path d="M0 0 C39.6 0 79.2 0 120 0 C118.61372007 3.46569983 117.62075958 5.81554677 115.6171875 8.76953125 C115.21612793 9.36612549 114.81506836 9.96271973 114.40185547 10.57739258 C113.64606201 11.68377075 113.64606201 11.68377075 112.875 12.8125 C110.461875 16.3703125 110.461875 16.3703125 108 20 C115.59 20 123.18 20 131 20 C130.12593187 25.24440879 128.9629904 29.96166398 127.375 35 C127.15199219 35.78117187 126.92898437 36.56234375 126.69921875 37.3671875 C124.8470232 43.18837352 122.16959282 46.68483026 117 50 C113.85069107 51.04976964 111.61185544 51.10131595 108.3125 51.0625 C107.31863281 51.05347656 106.32476562 51.04445312 105.30078125 51.03515625 C104.16189453 51.01775391 104.16189453 51.01775391 103 51 C102.65388672 52.47146484 102.65388672 52.47146484 102.30078125 53.97265625 C94.42509063 86.80784946 94.42509063 86.80784946 86 94 C83.10273956 95.71807387 80.97321687 96.25649673 77.61791992 96.29052734 C76.33089424 96.3096669 76.33089424 96.3096669 75.01786804 96.32919312 C74.09802628 96.33141876 73.17818451 96.33364441 72.23046875 96.3359375 C71.27610428 96.3425943 70.32173981 96.3492511 69.3384552 96.35610962 C67.32030156 96.36622733 65.30211452 96.37092691 63.28393555 96.37060547 C60.20890571 96.37496962 57.13532201 96.41127377 54.06054688 96.44921875 C52.09635905 96.45508902 50.13216444 96.45905701 48.16796875 96.4609375 C47.25419968 96.47530853 46.3404306 96.48967957 45.39897156 96.50448608 C39.41399753 96.46203281 35.88360662 95.52632185 31 92 C27.459735 86.99691718 25.73595628 81.71213823 24 75.875 C23.74653809 75.04621338 23.49307617 74.21742676 23.23193359 73.36352539 C22.72259544 71.69632195 22.21651004 70.02812092 21.71386719 68.35888672 C21.06510294 66.21512468 20.40081788 64.07726291 19.7265625 61.94140625 C17 53.26861702 17 53.26861702 17 51 C16.2265625 51.06960937 15.453125 51.13921875 14.65625 51.2109375 C8.01285979 51.55626224 3.88296581 51.17164384 -1.37890625 46.99609375 C-5.18762151 42.30632628 -6.80424415 35.92821553 -8.6875 30.25 C-8.91244141 29.59128906 -9.13738281 28.93257812 -9.36914062 28.25390625 C-10.32990362 25.37453753 -11 23.05727628 -11 20 C-3.41 20 4.18 20 12 20 C8.80109334 14.91327778 8.80109334 14.91327778 5.59814453 9.82910156 C5.19708496 9.1894043 4.79602539 8.54970703 4.3828125 7.890625 C3.97434082 7.24125977 3.56586914 6.59189453 3.14501953 5.92285156 C2.00132844 4.00223087 0.99968127 1.99936253 0 0 Z " fill="#251B1C" transform="translate(40,58)"/>
<path d="M0 0 C3.97951416 0.97742453 5.39471459 1.40654334 7.5625 4.875 C8.18283544 8.00593832 8.20276301 10.74606251 7.5625 13.875 C5.13137157 17.37868509 3.74112962 18.62945216 -0.4375 19.5 C-4.53835314 18.6456556 -5.94990343 17.21548682 -8.4375 13.875 C-9.5723141 9.90315066 -9.87473824 7.85878603 -8.1875 4.0625 C-5.5730879 0.79448488 -4.23684841 -0.15406721 0 0 Z " fill="#F5E4E3" transform="translate(117.4375,90.125)"/>
<path d="M0 0 C4.10085314 0.8543444 5.51240343 2.28451318 8 5.625 C9.0625 9.0625 9.0625 9.0625 9 12.625 C6.06329114 18.09335443 6.06329114 18.09335443 3 19.625 C-0.93429172 20.14957223 -2.54458957 19.93190703 -5.875 17.6875 C-8.36004541 14.10611103 -8.74127589 12.0597017 -8.484375 7.78515625 C-7.41724547 3.02610278 -4.5981375 0.95794531 0 0 Z " fill="#F6E4E3" transform="translate(83,89.375)"/>
</svg>
