<svg width="498" height="498" viewBox="0 0 498 498" fill="none" xmlns="http://www.w3.org/2000/svg">
<path d="M313.703 279.696L491.685 279.696C498.531 279.696 499.91 270.374 493.685 267.528L313.714 185.559V6.88141C313.714 0.212075 304.794 -1.97635 301.716 3.94024L227.728 146.399L145.741 108.744C137.897 105.576 133.08 111.962 135.742 117.451L184.633 218.302L6.65076 218.302C-0.194759 218.302 -1.57437 227.623 4.65108 230.47L184.622 312.439L184.622 491.116C184.622 497.785 193.542 499.974 196.62 494.057L270.608 351.598L352.595 389.254C360.439 392.422 365.256 386.036 362.594 380.546L313.703 279.696Z" fill="url(#paint0_linear_1_5606)"/>
<defs>
<linearGradient id="paint0_linear_1_5606" x1="400.109" y1="130.876" x2="79.643" y2="376.677" gradientUnits="userSpaceOnUse">
<stop stop-color="#FA43BD"/>
<stop offset="1" stop-color="#FFA930"/>
</linearGradient>
</defs>
</svg>
