<svg width="1500" height="1500" viewBox="0 0 1500 1500" fill="none" xmlns="http://www.w3.org/2000/svg">
<g clip-path="url(#clip0_37_2)">
<path d="M1500 0H0V1500H1500V0Z" fill="#086552"/>
<path d="M1082.18 480.929L955.059 608.054C940.745 622.369 923.25 632.764 904.277 638.614C892.746 642.136 880.647 643.954 868.378 643.954H631.679C619.41 643.954 607.31 642.136 595.779 638.614C576.75 632.764 559.312 622.369 544.997 608.054C502.565 565.622 460.247 523.304 417.872 480.872C413.896 476.896 409.919 472.976 406 469C406.909 477.691 408.159 487.007 410.033 496.834C413.555 515.635 419.008 536.425 427.472 558.238C430.88 567.042 434.572 575.449 438.491 583.515C448.432 603.964 459.736 622.028 471.494 637.989C493.647 667.981 523.753 690.476 557.721 703.597C580.045 712.231 604.073 716.775 628.612 716.775H871.388C895.927 716.775 919.955 712.174 942.279 703.597C976.247 690.476 1006.3 668.038 1028.51 637.989C1040.26 622.085 1051.57 603.964 1061.51 583.572C1065.43 575.506 1069.12 567.099 1072.53 558.295C1080.99 536.482 1086.5 515.749 1089.97 496.89C1091.84 487.063 1093.09 477.748 1094 469.057C1090.02 473.033 1086.05 477.009 1082.13 480.929H1082.18ZM432.413 738.985L516.028 822.657H648.436L582.26 888.832L633.724 940.296L751.363 822.657H981.359L1065.03 738.985C1036.57 710.584 990.505 710.527 962.046 738.985L951.197 749.835H546.19L535.341 738.985C521.14 724.785 502.509 717.684 483.877 717.684C465.246 717.684 446.614 724.785 432.413 738.985ZM769.711 855.716L658.263 964.892L706.262 1012.89C729.664 1036.29 767.666 1036.29 791.069 1012.89L948.243 855.716H769.711Z" fill="#FFFDF1"/>
</g>
<defs>
<clipPath id="clip0_37_2">
<rect width="1500" height="1500" rx="750" fill="white"/>
</clipPath>
</defs>
</svg>
