<?xml version="1.0" encoding="UTF-8"?>
<svg version="1.1" xmlns="http://www.w3.org/2000/svg" width="1081" height="1081">
<path d="M0 0 C0.94520508 0.6177832 1.89041016 1.23556641 2.86425781 1.87207031 C16.15387615 10.58706752 29.22952804 19.54027895 42 29 C42.66902344 29.49419434 43.33804688 29.98838867 44.02734375 30.49755859 C58.63032693 41.30390848 73.00421086 52.41727795 87 64 C88.77068118 65.43768741 90.54151892 66.87518202 92.3125 68.3125 C97.74728484 72.75914214 103.08006862 77.31786648 108.3984375 81.90234375 C110.74782976 83.92744119 113.1067514 85.9402473 115.4765625 87.94140625 C122.38497504 93.78856032 129.10232953 99.79415624 135.67553711 106.01708984 C138.65537205 108.83476536 141.66453681 111.59864248 144.76464844 114.28393555 C160.2267276 127.78487382 174.62215873 142.46321141 189.11474609 156.984375 C192.06170243 159.93708791 195.01321105 162.88520361 197.96601295 165.8320694 C200.27396325 168.13638967 202.5795067 170.44310628 204.88434982 172.75053406 C205.9719273 173.83877094 207.06022668 174.92628695 208.14931107 176.01301575 C213.98176902 181.83559591 219.63951636 187.73744399 225 194 C226.30168755 195.4162644 227.61182872 196.82490963 228.9375 198.21875 C229.93910156 199.27642578 229.93910156 199.27642578 230.9609375 200.35546875 C231.63382813 201.06316406 232.30671875 201.77085937 233 202.5 C238.12949517 207.89481389 243.14257924 213.35846729 248 219 C248.48774902 219.56557617 248.97549805 220.13115234 249.47802734 220.71386719 C250.88406065 222.34847229 252.2864454 223.98612623 253.6875 225.625 C254.72910899 226.84249726 255.77077741 228.05994368 256.8125 229.27734375 C257.3384375 229.89206543 257.864375 230.50678711 258.40625 231.14013672 C259.97623688 232.97226908 261.54997431 234.80110477 263.125 236.62890625 C269.18859942 243.67038138 275.14732593 250.78138579 281 258 C282.04246664 259.27254691 283.08547223 260.54465243 284.12890625 261.81640625 C289.79891617 268.73942041 295.38096002 275.69795414 300.703125 282.89453125 C302.38856589 285.17331613 304.08518992 287.44032718 305.796875 289.69921875 C348.8815452 346.60603344 407.20311854 424.1702476 398.53515625 499.609375 C392.22722957 545.0676951 367.74196324 588.17042134 343 626 C342.3822168 626.94520508 341.76443359 627.89041016 341.12792969 628.86425781 C332.41293248 642.15387615 323.45972105 655.22952804 314 668 C313.50580566 668.66902344 313.01161133 669.33804688 312.50244141 670.02734375 C299.56966961 687.5038322 286.17344254 704.59548751 272.08959961 721.15869141 C269.13960482 724.63298049 266.24306211 728.14489367 263.375 731.6875 C259.75165505 736.13903808 255.98036128 740.42382455 252.1171875 744.66796875 C250.21948831 746.75823889 248.35266585 748.86986115 246.5 751 C239.8237925 758.65620126 232.98182351 766.16688532 226.09716797 773.63574219 C224.15752141 775.74020493 222.22475338 777.85060284 220.29711914 779.96606445 C209.27740627 791.98019316 197.70287598 803.45007827 186.16650391 814.96386719 C183.19804633 817.92658187 180.23416683 820.8938298 177.27155495 823.86238861 C174.95865285 826.17892194 172.6433528 828.49304684 170.32734299 830.80647278 C169.23352374 831.89963225 168.14042643 832.99351465 167.04811478 834.08818054 C161.20518129 839.94096438 155.28512964 845.62156335 149 851 C147.5837356 852.30168755 146.17509037 853.61182872 144.78125 854.9375 C144.07613281 855.60523438 143.37101563 856.27296875 142.64453125 856.9609375 C141.58298828 857.97027344 141.58298828 857.97027344 140.5 859 C135.10518611 864.12949517 129.64153271 869.14257924 124 874 C123.43442383 874.48774902 122.86884766 874.97549805 122.28613281 875.47802734 C120.65152771 876.88406065 119.01387377 878.2864454 117.375 879.6875 C116.15750274 880.72910899 114.94005632 881.77077741 113.72265625 882.8125 C113.10793457 883.3384375 112.49321289 883.864375 111.85986328 884.40625 C110.02773092 885.97623688 108.19889523 887.54997431 106.37109375 889.125 C99.33012814 895.18829429 92.23458485 901.16754196 85 907 C84.43168457 907.45874512 83.86336914 907.91749023 83.27783203 908.39013672 C69.25320426 919.70007983 54.96321318 930.59409313 40.41992188 941.22851562 C38.10445926 942.92353143 35.79428433 944.6255538 33.484375 946.328125 C22.59306712 954.31820758 11.41270311 961.77690644 0 969 C-0.87092285 969.55220215 -1.7418457 970.1044043 -2.63916016 970.67333984 C-13.76803904 977.70672597 -25.00194602 984.4773366 -36.60107422 990.70800781 C-38.26520476 991.60426049 -39.9254371 992.50777433 -41.58251953 993.41699219 C-86.12513598 1017.83294491 -132.56603294 1033.22396064 -182.70019531 1018.671875 C-218.47179829 1007.72905771 -251.82120571 989.39210082 -283 969 C-283.94520508 968.3822168 -284.89041016 967.76443359 -285.86425781 967.12792969 C-299.15387615 958.41293248 -312.22952804 949.45972105 -325 940 C-325.66902344 939.50580566 -326.33804687 939.01161133 -327.02734375 938.50244141 C-344.5038322 925.56966961 -361.59548751 912.17344254 -378.15869141 898.08959961 C-381.63298049 895.13960482 -385.14489367 892.24306211 -388.6875 889.375 C-393.13903808 885.75165505 -397.42382455 881.98036128 -401.66796875 878.1171875 C-403.75823889 876.21948831 -405.86986115 874.35266585 -408 872.5 C-415.65620126 865.8237925 -423.16688532 858.98182351 -430.63574219 852.09716797 C-432.74020493 850.15752141 -434.85060284 848.22475338 -436.96606445 846.29711914 C-448.98019316 835.27740627 -460.45007827 823.70287598 -471.96386719 812.16650391 C-474.92658187 809.19804633 -477.8938298 806.23416683 -480.86238861 803.27155495 C-483.17892194 800.95865285 -485.49304684 798.6433528 -487.80647278 796.32734299 C-488.89963225 795.23352374 -489.99351465 794.14042643 -491.08818054 793.04811478 C-496.94096438 787.20518129 -502.62156335 781.28512964 -508 775 C-509.30168755 773.5837356 -510.61182872 772.17509037 -511.9375 770.78125 C-512.60523438 770.07613281 -513.27296875 769.37101563 -513.9609375 768.64453125 C-514.63382813 767.93683594 -515.30671875 767.22914063 -516 766.5 C-521.12949517 761.10518611 -526.14257924 755.64153271 -531 750 C-531.48774902 749.43442383 -531.97549805 748.86884766 -532.47802734 748.28613281 C-533.88406065 746.65152771 -535.2864454 745.01387377 -536.6875 743.375 C-537.72910899 742.15750274 -538.77077741 740.94005632 -539.8125 739.72265625 C-540.3384375 739.10793457 -540.864375 738.49321289 -541.40625 737.85986328 C-542.97623688 736.02773092 -544.54997431 734.19889523 -546.125 732.37109375 C-552.18829429 725.33012814 -558.16754196 718.23458485 -564 711 C-564.45874512 710.43168457 -564.91749023 709.86336914 -565.39013672 709.27783203 C-572.38049714 700.60960072 -579.26652203 691.86952884 -586 683 C-586.69561035 682.08613525 -586.69561035 682.08613525 -587.40527344 681.15380859 C-609.5250204 652.05237797 -630.39587844 621.62749335 -647.70800781 589.39892578 C-648.60426049 587.73479524 -649.50777433 586.0745629 -650.41699219 584.41748047 C-674.83294491 539.87486402 -690.22396064 493.43396706 -675.671875 443.29980469 C-657.78613123 384.8320712 -621.56763118 333.21099189 -585 285 C-584.57654297 284.44006348 -584.15308594 283.88012695 -583.71679688 283.30322266 C-577.16463166 274.65093792 -570.36286347 266.21700416 -563.48828125 257.8203125 C-562.18590621 256.22738135 -560.88933968 254.6297048 -559.59375 253.03125 C-554.53259036 246.79648812 -549.34048982 240.68338156 -544.09765625 234.6015625 C-542.07255881 232.25217024 -540.0597527 229.8932486 -538.05859375 227.5234375 C-532.21143968 220.61502496 -526.20584376 213.89767047 -519.98291016 207.32446289 C-517.16523464 204.34462795 -514.40135752 201.33546319 -511.71606445 198.23535156 C-498.21512618 182.7732724 -483.53678859 168.37784127 -469.015625 153.88525391 C-466.06291209 150.93829757 -463.11479639 147.98678895 -460.1679306 145.03398705 C-457.86361033 142.72603675 -455.55689372 140.4204933 -453.24946594 138.11565018 C-452.16122906 137.0280727 -451.07371305 135.93977332 -449.98698425 134.85068893 C-444.16440409 129.01823098 -438.26255601 123.36048364 -432 118 C-430.5837356 116.69831245 -429.17509037 115.38817128 -427.78125 114.0625 C-427.07613281 113.39476562 -426.37101563 112.72703125 -425.64453125 112.0390625 C-424.93683594 111.36617187 -424.22914063 110.69328125 -423.5 110 C-418.10518611 104.87050483 -412.64153271 99.85742076 -407 95 C-406.43442383 94.51225098 -405.86884766 94.02450195 -405.28613281 93.52197266 C-403.65152771 92.11593935 -402.01387377 90.7135546 -400.375 89.3125 C-399.15750274 88.27089101 -397.94005632 87.22922259 -396.72265625 86.1875 C-396.10793457 85.6615625 -395.49321289 85.135625 -394.85986328 84.59375 C-393.02773092 83.02376312 -391.19889523 81.45002569 -389.37109375 79.875 C-382.32961862 73.81140058 -375.21861421 67.85267407 -368 62 C-366.72745309 60.95753336 -365.45534757 59.91452777 -364.18359375 58.87109375 C-357.26057959 53.20108383 -350.30204586 47.61903998 -343.10546875 42.296875 C-340.82668387 40.61143411 -338.55967282 38.91481008 -336.30078125 37.203125 C-307.77084578 15.60381065 -277.9475231 -4.76113615 -246.39892578 -21.70800781 C-244.73479524 -22.60426049 -243.0745629 -23.50777433 -241.41748047 -24.41699219 C-152.92057938 -72.92640463 -81.60332986 -53.37163824 0 0 Z M-256.46826172 248.55273438 C-259.93567808 250.53487943 -263.45426317 252.41505602 -266.97607422 254.29833984 C-281.32172647 261.9788052 -295.17745285 270.42610873 -309 279 C-309.969375 279.60070312 -310.93875 280.20140625 -311.9375 280.8203125 C-378.88636751 321.92511576 -378.88636751 321.92511576 -435 376 C-436.22009766 377.48113281 -436.22009766 377.48113281 -437.46484375 378.9921875 C-447.80707227 391.78359002 -452.42372775 403.40966032 -451 420 C-442.55129348 482.38878812 -408.72507675 545.70564002 -377.44726562 599.46826172 C-375.46512057 602.93567808 -373.58494398 606.45426317 -371.70166016 609.97607422 C-364.0211948 624.32172647 -355.57389127 638.17745285 -347 652 C-346.39929688 652.969375 -345.79859375 653.93875 -345.1796875 654.9375 C-304.07488424 721.88636751 -304.07488424 721.88636751 -250 778 C-249.01257813 778.81339844 -248.02515625 779.62679687 -247.0078125 780.46484375 C-234.21640998 790.80707227 -222.59033968 795.42372775 -206 794 C-143.61121188 785.55129348 -80.29435998 751.72507675 -26.53173828 720.44726562 C-23.06432192 718.46512057 -19.54573683 716.58494398 -16.02392578 714.70166016 C-1.67827353 707.0211948 12.17745285 698.57389127 26 690 C27.4540625 689.09894531 27.4540625 689.09894531 28.9375 688.1796875 C95.88636751 647.07488424 95.88636751 647.07488424 152 593 C152.81339844 592.01257813 153.62679687 591.02515625 154.46484375 590.0078125 C164.80707227 577.21640998 169.42372775 565.59033968 168 549 C159.55129348 486.61121188 125.72507675 423.29435998 94.44726562 369.53173828 C92.46512057 366.06432192 90.58494398 362.54573683 88.70166016 359.02392578 C81.0211948 344.67827353 72.57389127 330.82254715 64 317 C63.39929688 316.030625 62.79859375 315.06125 62.1796875 314.0625 C21.07488424 247.11363249 21.07488424 247.11363249 -33 191 C-34.48113281 189.77990234 -34.48113281 189.77990234 -35.9921875 188.53515625 C-89.84347148 144.99479512 -206.73225165 219.61750987 -256.46826172 248.55273438 Z " fill="#836EF9" transform="translate(682,56)"/>
</svg>
